# AST/ASF file generated using VICON BodyLanguage
# -----------------------------------------------
:version 1.10
:name VICON
:units
  mass 1.0
  length 0.45
  angle deg
:documentation
   .ast/.asf automatically generated from VICON data using
   VICON BodyBuilder and BodyLanguage model FoxedUp or BRILLIANT.MOD
:root
   order TX TY TZ RX RY RZ
   axis XYZ
   position 0 0 0  
   orientation 0 0 0 
:bonedata
  begin
     id 1 
     name lhipjoint
     direction 0.558404 -0.748506 0.357664 
     length 2.4234 
     axis 0 0 0  XYZ
  end
  begin
     id 2 
     name lfemur
     direction 0.34202 -0.939693 0  
     length 7.14567  
     axis 0 0 20  XYZ
    dof rx ry rz
    limits (-160.0 20.0)
           (-70.0 70.0)
           (-60.0 70.0)
  end
  begin
     id 3 
     name ltibia
     direction 0.34202 -0.939693 0   
     length 8.13956   
     axis 0 0 20   XYZ
    dof rx
    limits (-10.0 170.0)
  end
  begin
     id 4 
     name lfoot
     direction 0.0791314 -0.217412 0.972867   
     length 2.00134   
     axis -90 7.62852e-016 20   XYZ
    dof rx rz
    limits (-45.0 90.0)
           (-70.0 20.0)
  end
  begin
     id 5 
     name ltoes
     direction 1.53547e-011 -4.21922e-011 1   
     length 1.00735   
     axis -90 7.62852e-016 20   XYZ
    dof rx
    limits (-90.0 20.0)
  end
  begin
     id 6 
     name rhipjoint
     direction -0.496392 -0.78327 0.374276   
     length 2.31584  
     axis 0 0 0  XYZ 
  end
  begin
     id 7 
     name rfemur
     direction -0.34202 -0.939693 0   
     length 7.47417   
     axis 0 0 -20   XYZ
    dof rx ry rz
    limits (-160.0 20.0)
           (-70.0 70.0)
           (-70.0 60.0)
  end
  begin
     id 8 
     name rtibia
     direction -0.34202 -0.939693 0   
     length 7.69071   
     axis 0 0 -20   XYZ
    dof rx
    limits (-10.0 170.0)
 end
 begin
     id 9 
     name rfoot
     direction -0.103069 -0.28318 0.953512   
     length 2.16135  
     axis -90 -7.62852e-016 -20   XYZ
    dof rx rz
    limits (-45.0 90.0)
           (-20.0 70.0)
  end
  begin
     id 10 
     name rtoes
     direction -1.53581e-011 -4.21904e-011 1   
     length 1.07867   
     axis -90 -7.62852e-016 -20   XYZ
    dof rx
    limits (-90.0 20.0)
  end
  begin
     id 11 
     name lowerback
     direction -0.0258961 0.994776 -0.0987407   
     length 2.19412   
     axis 0 0 0   XYZ
    dof rx ry rz
    limits (-20.0 45.0)
           (-30.0 30.0)
           (-30.0 30.0)
  end
  begin
     id 12 
     name upperback
     direction 0.0402454 0.999185 0.00320666   
     length 2.18445   
     axis 0 0 0   XYZ
    dof rx ry rz
    limits (-20.0 45.0)
           (-30.0 30.0)
           (-30.0 30.0)
  end
  begin
     id 13 
     name thorax
     direction 0.0519376 0.997415 0.0496558   
     length 2.21487   
     axis 0 0 0   XYZ
    dof rx ry rz
    limits (-20.0 45.0)
           (-30.0 30.0)
           (-30.0 30.0)
  end
  begin
     id 14 
     name lowerneck
     direction -0.0921276 0.983211 0.157506   
     length 1.61201   
     axis 0 0 0   XYZ
    dof rx ry rz
    limits (-20.0 45.0)
           (-30.0 30.0)
           (-30.0 30.0)
  end
  begin
     id 15 
     name upperneck
     direction 0.0820814 0.98162 -0.172292   
     length 1.65275   
     axis 0 0 0   XYZ
    dof rx ry rz
    limits (-20.0 45.0)
           (-30.0 30.0)
           (-30.0 30.0)
  end
  begin
     id 16
     name head
     direction 0.0336554 0.996413 -0.0776455  
     length 1.66415  
     axis 0 0 0   XYZ
    dof rx ry rz
    limits (-20.0 45.0)
           (-30.0 30.0)
           (-30.0 30.0)
  end
  begin
     id 17 
     name lclavicle
     direction 0.94696 0.284418 -0.149576  
     length 3.41447  
     axis 0 0 0   XYZ
    dof ry rz
    limits (-20.0 10.0)
           (0.0 20.0)
  end
  begin
     id 18 
     name lhumerus
     direction 1 -0.000130264 -9.81312e-005   
     length 5.19964   
     axis 180 -30 -90   XYZ
    dof rx ry rz
    limits (-60.0 90.0)
           (-90.0 90.0)
           (-90.0 90.0)
  end
  begin
     id 19
     name lradius
     direction 1 -4.48961e-011 1.43854e-026   
     length 3.32189   
     axis 180 -30 -90   XYZ
    dof rx
    limits (-10.0 170.0)
  end
  begin
     id 20
     name lwrist
     direction 1 -4.48958e-011 3.1502e-026   
     length 1.66095   
     axis -1.97692e-014 90 90   XYZ
    dof ry
    limits (-180.0 0.0)
 end
  begin
     id 21 
     name lhand
     direction 1 -4.48927e-011 6.3004e-026   
     length 0.645616   
     axis -4.02019e-014 90 90   XYZ
    dof rx rz
    limits (-90.0 90.0)
           (-45.0 45.0)
  end
  begin
     id 22 
     name lfingers
     direction 1 -4.4904e-011 1.26008e-025   
     length 0.520512   
     axis -8.04039e-014 90 90   XYZ
    dof rx
    limits (0.0 90.0)
  end
  begin
     id 23
     name lthumb
     direction 0.707107 -6.34947e-011 0.707107   
     length 0.747354   
     axis -90 45 2.85299e-015   XYZ
    dof rx rz
    limits (-45.0 45.0)
           (-45.0 45.0)
  end
  begin
     id 24 
     name rclavicle
     direction -0.909391 0.383475 -0.161107   
     length 3.25176  
     axis 0 0 0   XYZ 
    dof ry rz
    limits (-10.0 20.0)
           (-20.0 0.0)
  end
  begin
     id 25 
     name rhumerus
     direction -1 -4.48965e-011 -1.81384e-027  
     length 5.6595   
     axis 180 30 90   XYZ
    dof rx ry rz
    limits (-90.0 60.0)
           (-90.0 90.0)
           (-90.0 90.0)
  end
  begin
     id 26 
     name rradius
     direction -1 -4.48996e-011 -8.09397e-027   
     length 3.37604   
     axis 180 30 90   XYZ
    dof rx
    limits (-10.0 170.0)
  end
  begin
     id 27 
     name rwrist
     direction -1 -4.48927e-011 -1.56669e-026   
     length 1.68802   
     axis 1.21142e-014 -90 -90   XYZ
    dof ry
    limits (-180.0 0.0)
  end
  begin
     id 28
     name rhand
     direction -1 -4.48912e-011 -3.13339e-026   
     length 0.824702   
     axis 1.99937e-014 -90 -90   XYZ
    dof rx rz
    limits (-90.0 90.0)
           (-45.0 45.0)
  end
  begin
     id 29
     name rfingers
     direction -1 -4.49011e-011 -6.26677e-026   
     length 0.664896   
     axis 3.99874e-014 -90 -90   XYZ
    dof rx
    limits (0.0 90.0)
  end
  begin
     id 30
     name rthumb
     direction -0.707107 -6.34931e-011 0.707107   
     length 0.954662   
     axis -90 -45 -2.85299e-015   XYZ
    dof rx rz
    limits (-45.0 45.0)
           (-45.0 45.0)
  end
:hierarchy
  begin
    root lhipjoint rhipjoint lowerback
    lhipjoint lfemur
    lfemur ltibia
    ltibia lfoot
    lfoot ltoes
    rhipjoint rfemur
    rfemur rtibia
    rtibia rfoot
    rfoot rtoes
    lowerback upperback
    upperback thorax
    thorax lowerneck lclavicle rclavicle
    lowerneck upperneck
    upperneck head
    lclavicle lhumerus
    lhumerus lradius
    lradius lwrist
    lwrist lhand lthumb
    lhand lfingers
    rclavicle rhumerus
    rhumerus rradius
    rradius rwrist
    rwrist rhand rthumb
    rhand rfingers
  end

#!OML:ASF F:\VICON\USERDATA\INSTALL\rory3\rory3.ASF
:FULLY-SPECIFIED
:DEGREES
32
root 11.82 17.8219 -38.5033 7.03932 -18.4965 -0.376241
lowerback 2.40253 -1.44763 -5.31939
upperback -4.11471 -2.04928 3.79167
thorax -5.32546 -0.717159 7.12719
lowerneck -5.27954 -10.473 -19.6933
upperneck 13.254 -14.129 12.735
head 7.24899 -7.06168 5.97385
rclavicle 3.47625e-014 -2.8625e-014
rhumerus -36.7367 -13.1371 -74.9098
rradius 29.9536
rwrist -12.7094
rhand -13.9868 17.2969
rfingers 7.12502
rthumb 12.1418 -12.3308
lclavicle 3.47625e-014 -2.8625e-014
lhumerus -33.2143 10.0602 88.8752
lradius 25.1632
lwrist -9.45125
lhand -3.64513 32.6158
lfingers 7.12502
lthumb 22.0947 61.3734
rfemur -17.4291 3.28533 23.9455
rtibia 39.774
rfoot -25.7002 -11.8599
rtoes 21.0318
lfemur -16.3952 -4.51692 -20.1288
ltibia 38.0259
lfoot -23.1687 12.1227
ltoes -6.29394
33
root 11.8194 17.8187 -38.5004 7.03197 -18.5054 -0.400946
lowerback 2.4165 -1.41431 -5.25529
upperback -4.13041 -2.00234 3.77894
thorax -5.35958 -0.694884 7.07502
lowerneck -5.40022 -10.5393 -19.6751
upperneck 13.5804 -14.2051 12.5855
head 7.37602 -7.10529 5.90344
rclavicle 7.76503e-016 -4.77083e-015
rhumerus -36.8544 -13.0297 -74.9394
rradius 30.1099
rwrist -12.8334
rhand -13.9776 17.2886
rfingers 7.12502
rthumb 12.1507 -12.3385
lclavicle 7.76503e-016 -4.77083e-015
lhumerus -33.2354 9.9618 88.8981
lradius 25.1087
lwrist -9.53753
lhand -3.5758 32.494
lfingers 7.12502
lthumb 22.1613 61.2437
rfemur -17.3854 3.29749 23.961
rtibia 39.7742
rfoot -25.7277 -11.7953
rtoes 20.8296
lfemur -16.3857 -4.48323 -20.1092
ltibia 38.034
lfoot -23.9402 10.8115
ltoes 4.40192
34
root 11.8184 17.8187 -38.5042 7.03838 -18.4894 -0.339917
lowerback 2.49429 -1.41942 -5.33378
upperback -4.20099 -2.01634 3.79367
thorax -5.47479 -0.691572 7.14279
lowerneck -5.4395 -10.5485 -19.7296
upperneck 13.7868 -14.1995 12.4469
head 7.44277 -7.11487 5.86332
rclavicle -5.50137e-014 -2.46493e-014
rhumerus -36.939 -12.964 -74.8784
rradius 30.1345
rwrist -12.7933
rhand -13.7788 17.4186
rfingers 7.12502
rthumb 12.3424 -12.1971
lclavicle -5.50137e-014 -2.46493e-014
lhumerus -33.3324 10.0821 88.8777
lradius 25.113
lwrist -9.66554
lhand -3.57105 32.4742
lfingers 7.12502
lthumb 22.1658 61.2234
rfemur -17.4135 3.32006 23.9045
rtibia 39.7693
rfoot -25.7828 -11.8417
rtoes 20.8492
lfemur -16.433 -4.51855 -20.1619
ltibia 38.0438
lfoot -23.221 12.1791
ltoes -5.97652
35
root 11.8178 17.8189 -38.5025 7.06386 -18.54 -0.353402
lowerback 2.51176 -1.3967 -5.32415
upperback -4.25529 -1.98503 3.82456
thorax -5.5471 -0.671266 7.17137
lowerneck -5.4926 -10.5318 -19.796
upperneck 13.7857 -14.1517 12.4126
head 7.44623 -7.09523 5.86578
rclavicle 2.69788e-014 -3.18055e-015
rhumerus -36.9705 -12.9688 -74.7795
rradius 30.0692
rwrist -12.7681
rhand -13.6328 17.4959
rfingers 7.12502
rthumb 12.4831 -12.1112
lclavicle 2.69788e-014 -3.18055e-015
lhumerus -33.4282 10.1407 88.9028
lradius 25.1126
lwrist -9.79794
lhand -3.57345 32.6192
lfingers 7.12502
lthumb 22.1635 61.3687
rfemur -17.4374 3.3292 23.9155
rtibia 39.7663
rfoot -25.7434 -11.8833
rtoes 20.4277
lfemur -16.4399 -4.58356 -20.1599
ltibia 38.0433
lfoot -23.9216 10.8898
ltoes 4.65262
36
root 11.8173 17.8181 -38.4903 7.05761 -18.7658 -0.471821
lowerback 2.43795 -1.29972 -5.18718
upperback -4.24189 -1.84339 3.84723
thorax -5.51581 -0.607757 7.10473
lowerneck -4.80466 -10.4419 -19.99
upperneck 13.5538 -14.1483 12.5647
head 7.27662 -7.11901 5.98131
rclavicle -3.88251e-015 -2.38542e-015
rhumerus -37.0369 -12.9527 -74.7178
rradius 30.0876
rwrist -12.9483
rhand -13.5821 17.4826
rfingers 7.12502
rthumb 12.532 -12.1216
lclavicle -3.88251e-015 -2.38542e-015
lhumerus -33.4621 10.0777 88.9508
lradius 25.0658
lwrist -9.97438
lhand -3.53339 32.7327
lfingers 7.12502
lthumb 22.202 61.4777
rfemur -17.3561 3.40636 23.9991
rtibia 39.7632
rfoot -25.7542 -11.792
rtoes 19.7577
lfemur -16.3016 -4.51856 -20.0941
ltibia 38.0327
lfoot -23.1827 12.3468
ltoes -5.84091
37
root 11.8161 17.8186 -38.4828 6.9919 -18.9376 -0.528116
lowerback 2.41533 -1.21617 -5.13863
upperback -4.17333 -1.72658 3.86483
thorax -5.44935 -0.555578 7.08542
lowerneck -5.16833 -10.5564 -20.0149
upperneck 13.5737 -14.2298 12.5474
head 7.36155 -7.14503 5.94878
rclavicle 5.09013e-014 -3.02153e-014
rhumerus -37.037 -12.9376 -74.6823
rradius 30.1722
rwrist -13.0609
rhand -13.5675 17.444
rfingers 7.12502
rthumb 12.5461 -12.1593
lclavicle 5.09013e-014 -3.02153e-014
lhumerus -33.4814 10.0293 89.0265
lradius 25.1483
lwrist -10.0923
lhand -3.4742 32.7741
lfingers 7.12502
lthumb 22.2588 61.5122
rfemur -17.2334 3.43975 24.0226
rtibia 39.7543
rfoot -25.8521 -11.6652
rtoes 19.4007
lfemur -16.1289 -4.49324 -20.079
ltibia 38.0273
lfoot -23.9168 11.7778
ltoes -0.157964
38
root 11.8144 17.8188 -38.4832 6.94086 -18.9005 -0.477794
lowerback 2.42219 -1.2101 -5.18884
upperback -4.12665 -1.72096 3.86653
thorax -5.40368 -0.553562 7.11458
lowerneck -5.3717 -10.6108 -20.0475
upperneck 13.6695 -14.2618 12.5054
head 7.43321 -7.15714 5.92431
rclavicle 5.3206e-014 -3.97569e-015
rhumerus -36.9918 -12.9943 -74.6311
rradius 30.2357
rwrist -13.0021
rhand -13.5915 17.4004
rfingers 7.12502
rthumb 12.5229 -12.2044
lclavicle 5.3206e-014 -3.97569e-015
lhumerus -33.5327 10.0162 89.0939
lradius 25.2476
lwrist -10.2265
lhand -3.41493 32.6805
lfingers 7.12502
lthumb 22.3157 61.4119
rfemur -17.1823 3.36759 23.9712
rtibia 39.7464
rfoot -25.8557 -11.5888
rtoes 19.6569
lfemur -16.075 -4.59388 -20.1282
ltibia 38.0282
lfoot -24.4832 11.0226
ltoes 6.07046
39
root 11.8129 17.8173 -38.4849 6.92064 -18.7712 -0.402571
lowerback 2.38959 -1.28443 -5.24471
upperback -4.09783 -1.82294 3.85178
thorax -5.33706 -0.605898 7.13469
lowerneck -5.3653 -10.5869 -19.991
upperneck 13.5932 -14.2244 12.4814
head 7.39462 -7.13717 5.9135
rclavicle -3.80176e-015 2.22639e-014
rhumerus -36.9126 -13.0332 -74.6396
rradius 30.2161
rwrist -12.9438
rhand -13.4958 17.4166
rfingers 7.12502
rthumb 12.6152 -12.1825
lclavicle -3.80176e-015 2.22639e-014
lhumerus -33.5046 10.0204 89.0728
lradius 25.2314
lwrist -10.3038
lhand -3.32538 32.7204
lfingers 7.12502
lthumb 22.4017 61.4414
rfemur -17.2 3.25455 23.9256
rtibia 39.761
rfoot -25.7877 -11.6797
rtoes 20
lfemur -16.0862 -4.71501 -20.1858
ltibia 38.0242
lfoot -24.3546 10.982
ltoes 5.97779
